PathFileType	4	(X/Y/Z)	S01_0019_Gait_markers.trc
DataRate	CameraRate	NumFrames	NumMarkers	Units	OrigDataRate	OrigDataStartFrame	OrigNumFrames
250.000000	250.000000	4	54	mm	250.000000	136	363
Frame#	Time	HEAD_ANT			R_HEAD			L_HEAD			C7			R_BACK			L_BACK			STERNUM			R_ACROMION			R_HUM_PROX			R_HUM_ANT			R_HUM_POST			R_ELBOW_LAT			R_ELBOW_MED			R_FOREARM			R_WIRST_LAT			R_WRITS_MED			R_HAND			L_ACROMION			L_HUM_PROX			L_HUM_ANT			L_HUM_POST			L_ELBOW_LAT			L_ELBOW_MED			L_FOREARM			L_WRIST_LAT			L_WIRST_MED			L_HAND			R_ILIAC			SACRUM			L_ILIAC			R_GTROCH			R_THIGH__1			R_THIGH_2			R_THIGH_3			R_THIGH_4			R_SHANK_1			R_SHANK_2			R_SHANK_3			R_SHANK_4			R_HEEL			R_FOOT_LAT			R_FOOT_MED			L_GTROCH			L_THIGH_1			L_THIGH_2			L_THIGH_3			L_THIGH_4			L_SHANK_1			L_SHANK_2			L_SHANK_3			L_SHANK_4			L_HEEL			L_FOOT_LAT			L_FOOT_MED			
		X1	Y1	Z1	X2	Y2	Z2	X3	Y3	Z3	X4	Y4	Z4	X5	Y5	Z5	X6	Y6	Z6	X7	Y7	Z7	X8	Y8	Z8	X9	Y9	Z9	X10	Y10	Z10	X11	Y11	Z11	X12	Y12	Z12	X13	Y13	Z13	X14	Y14	Z14	X15	Y15	Z15	X16	Y16	Z16	X17	Y17	Z17	X18	Y18	Z18	X19	Y19	Z19	X20	Y20	Z20	X21	Y21	Z21	X22	Y22	Z22	X23	Y23	Z23	X24	Y24	Z24	X25	Y25	Z25	X26	Y26	Z26	X27	Y27	Z27	X28	Y28	Z28	X29	Y29	Z29	X30	Y30	Z30	X31	Y31	Z31	X32	Y32	Z32	X33	Y33	Z33	X34	Y34	Z34	X35	Y35	Z35	X36	Y36	Z36	X37	Y37	Z37	X38	Y38	Z38	X39	Y39	Z39	X40	Y40	Z40	X41	Y41	Z41	X42	Y42	Z42	X43	Y43	Z43	X44	Y44	Z44	X45	Y45	Z45	X46	Y46	Z46	X47	Y47	Z47	X48	Y48	Z48	X49	Y49	Z49	X50	Y50	Z50	X51	Y51	Z51	X52	Y52	Z52	X53	Y53	Z53	X54	Y54	Z54	

137	0.544	753.079345703125	1739.590087890625	-296.9588012695309	698.1228637695312	1689.1103515625	-216.4070434570309	692.4970092773438	1689.480712890625	-364.3942565917965	561.4457397460938	1517.84228515625	-285.1470031738278	494.4779357910156	1318.089721679688	-219.5743255615232	489.3327941894531	1322.993041992188	-356.3590698242185	740.8023681640625	1357.753051757812	-293.8493347167966	643.1072998046875	1466.045776367188	-117.5739517211911	612.1431884765625	1306.51806640625	-23.49058341979951	676.91455078125	1223.552734375	-20.06110954284641	555.0698852539062	1221.407104492188	-7.094939708709446	612.9336547851562	1117.676147460938	0.381989508867512	577.2775268554688	1110.89453125	-76.3112640380857	752.7244873046875	962.9261474609375	-33.91624069213846	795.9161987304688	910.7933959960938	-87.03638458251933	746.9434204101562	869.3091430664062	-38.046920776367	835.9259643554688	826.5899658203125	-43.23899841308575	633.4166259765625	1476.56005859375	-457.2103271484372	594.5453491210938	1312.994506835938	-555.2698974609372	652.7864990234375	1230.76171875	-568.6174316406248	528.294189453125	1238.491455078125	-573.767883300781	583.29296875	1132.484008789063	-593.705383300781	536.64697265625	1127.464599609375	-531.8963623046873	680.6573486328125	953.4063110351564	-596.7629394531248	717.1708374023438	889.4169921875001	-551.5707397460935	663.5435180664062	872.0101318359376	-608.2702636718748	736.5724487304688	810.3265991210939	-604.633117675781	634.6170654296875	1070.7529296875	-123.068061828613	505.7780151367188	1046.9970703125	-296.8333740234373	625.5017700195312	1064.252685546875	-467.9741210937498	573.3924560546875	933.3182983398438	-111.894104003906	553.0487060546875	655.536376953125	-143.396026611328	611.5460205078125	659.2194213867188	-138.0092926025389	595.289794921875	560.0703125	-177.1605072021483	533.324462890625	578.5784912109375	-167.653854370117	465.4790649414062	352.9674072265626	-179.9613342285155	516.1666259765625	324.0717773437501	-195.7738952636718	497.7031555175781	243.471420288086	-219.5452575683593	436.0039367675781	259.7614135742188	-209.6710205078124	361.4454345703125	66.23615264892585	-308.086181640625	514.8363037109375	18.8194904327393	-213.8524322509766	578.7774047851562	30.12051200866706	-311.6161804199219	603.08349609375	949.1339111328126	-476.4596252441404	798.9950561523438	700.2557983398439	-458.2046508789061	743.2255249023438	697.5533447265626	-478.8698730468748	766.9642333984375	597.5291137695314	-448.1287231445311	823.4876708984375	625.1740112304689	-434.7033081054686	820.4926147460938	347.6017150878907	-439.0620422363281	764.32666015625	326.7530517578126	-448.1336364746093	759.1062622070312	239.7823333740235	-434.4404907226562	820.5039672851562	246.0205383300782	-419.3519287109374	712.8223876953125	47.6968421936036	-372.0901794433594	896.078125	34.23258972167978	-421.2608642578125	918.3817138671875	49.94241714477546	-323.6200866699219	
138	0.548	758.6298217773438	1738.626220703125	-297.2341308593746	703.7489624023438	1688.16796875	-216.8650360107418	698.1751708984375	1688.494384765625	-364.548919677734	567.1656494140625	1517.00390625	-285.3730468749997	499.99951171875	1317.337768554688	-219.6139221191403	494.1485900878906	1322.226440429688	-356.587463378906	746.281494140625	1356.66650390625	-293.907531738281	648.9091796875	1465.100830078125	-117.7550277709958	618.169921875	1305.603149414062	-23.80305862426729	683.0580444335938	1222.631958007812	-20.37043571472141	561.9002075195312	1220.686157226562	-6.952454566955296	619.2203369140625	1116.669677734375	0.3459624648096657	583.2152709960938	1109.955810546875	-76.4304046630857	758.3892211914062	961.4142456054688	-34.10291290283182	802.3673706054688	910.0684204101562	-86.93721771240214	753.5770874023438	868.5836791992188	-38.14754867553692	842.5780639648438	826.109619140625	-43.37353897094708	638.8452758789062	1475.527954101562	-457.5537109374997	599.7762451171875	1312.001831054688	-555.2852783203122	658.0042114257812	1229.659057617188	-568.8387451171873	533.3245849609375	1237.593017578125	-573.7166748046873	586.0712280273438	1132.366455078125	-594.2670898437498	541.5809936523438	1126.492431640625	-531.557434082031	685.576904296875	952.4099731445314	-596.8293457031248	722.5718994140625	888.7357177734376	-551.406066894531	668.5137939453125	871.0060424804689	-607.8142089843748	741.9400024414062	809.5856323242189	-604.6160888671873	639.6377563476562	1069.862182617188	-123.2038726806638	511.3860168457031	1046.056884765625	-296.945617675781	630.4877319335938	1063.059692382812	-468.0657653808591	578.5462036132812	933.0294799804688	-111.9840087890623	556.3493041992188	655.4578247070312	-143.4826354980467	614.9888305664062	658.9558715820312	-137.7501068115233	598.1207275390625	559.77978515625	-176.9469757080077	536.2029418945312	578.6111450195312	-167.4802398681639	466.9601745605469	353.2777404785157	-179.9609832763671	517.537841796875	324.1870727539063	-195.6609344482421	498.6449584960938	243.6534881591797	-219.4604492187499	437.0028991699219	260.2877807617188	-209.7158203124999	361.6473693847656	67.03363037109382	-308.1895751953125	514.7650146484375	18.84921836853032	-213.9474334716797	578.8305053710938	30.0917930603028	-311.6078186035156	608.4761352539062	947.9106445312501	-476.3390197753904	804.09375	699.3015747070314	-457.9534606933592	748.3798828125	696.4715576171876	-478.4920654296873	772.6976318359375	596.5227661132814	-447.6301269531249	828.8555908203125	624.4585571289064	-434.4152526855468	830.85693359375	347.4026184082032	-437.8054809570312	774.9531860351562	325.270477294922	-447.1522827148437	771.5342407226562	238.7776794433595	-434.4364013671874	833.1063232421875	246.1339874267579	-418.4837951660156	730.1365966796875	45.40267181396493	-371.5252685546875	913.5762329101562	35.01826095581064	-420.3778381347656	935.6016845703125	50.87071609497077	-322.5234375	
139	0.552	764.314697265625	1737.741821289062	-297.4196472167965	709.3909912109375	1686.988403320312	-216.9908599853512	703.9528198242188	1687.541870117188	-364.7503662109371	572.7210083007812	1516.127807617188	-285.6940612792965	505.3037414550781	1316.631225585938	-219.7601470947263	499.5957641601562	1321.490478515625	-356.8054199218747	751.7965087890625	1355.513427734375	-294.0491027832028	654.61767578125	1464.108520507812	-117.9978027343747	624.2028198242188	1304.65234375	-23.97484397888154	689.28173828125	1221.796264648438	-20.80252838134739	568.1270751953125	1219.846313476562	-7.054638862609592	625.3895874023438	1115.796020507812	0.2373452782633398	589.6773681640625	1108.8642578125	-76.52484893798804	764.847412109375	960.7801513671875	-34.11997604370096	808.8329467773438	909.3526000976562	-87.22078704833964	760.041015625	867.5596923828125	-38.23266601562481	849.12353515625	825.42431640625	-43.44409942626935	644.6257934570312	1474.413940429688	-457.7463989257809	604.994384765625	1310.867309570313	-555.4505004882809	663.0150146484375	1228.4853515625	-568.7644042968748	538.6723022460938	1236.67333984375	-573.521057128906	593.1354370117188	1130.338256835938	-593.5571289062498	546.8276977539062	1125.384521484375	-531.1127319335935	690.6393432617188	951.4674682617189	-596.5592651367185	727.869384765625	887.7751464843751	-551.222717285156	673.669921875	869.9369506835939	-607.450256347656	747.2842407226562	808.7334594726564	-604.4373779296873	645.0925903320312	1069.0908203125	-123.2241210937498	516.6334228515625	1044.914794921875	-297.2391357421873	635.51953125	1061.834838867188	-468.1224365234373	583.8194580078125	932.6735229492188	-111.9803161621092	559.8218383789062	655.5848388671875	-143.4139251708983	618.3894653320312	658.804443359375	-137.8633575439452	600.92578125	559.3740844726562	-176.706329345703	539.2077026367188	578.8287353515625	-167.4571838378905	468.49755859375	353.6845703125001	-179.8060607910155	518.8845825195312	324.3140869140626	-195.521987915039	499.6318664550781	243.8416442871094	-219.3692626953124	438.0426025390625	260.7262878417969	-209.6906280517578	361.9332885742188	67.78834533691413	-308.2989807128906	514.671630859375	18.84884643554692	-214.0224609375	578.8848876953125	30.0685939788819	-311.5850219726562	613.5315551757812	946.6529541015626	-476.1630554199216	809.1696166992188	698.2308349609376	-457.8590698242186	753.6723022460938	695.3329467773439	-477.9577026367186	778.029541015625	595.3661499023439	-446.9082031249999	834.1848754882812	623.4830932617189	-433.8445434570311	840.934326171875	347.1745605468751	-437.1162109374999	785.4379272460938	323.8247070312501	-446.3128662109374	784.2387084960938	237.4680328369141	-433.6068420410156	845.7294921875	246.0598754882813	-418.0568237304687	747.6482543945312	43.10871505737313	-370.0686645507812	931.01318359375	35.91292190551767	-419.5003662109375	952.7791137695312	51.94816970825202	-321.6209411621094	
140	0.556	770.0499267578125	1736.866088867188	-297.601654052734	714.9676513671875	1686.05859375	-217.1799621582028	709.7726440429688	1686.633911132812	-364.9544677734371	578.5069580078125	1515.142333984375	-285.8228759765622	510.9900512695312	1315.817993164062	-219.8187103271482	505.0108947753906	1320.66015625	-356.9913635253903	757.3030395507812	1354.307495117188	-294.924377441406	660.4302978515625	1463.080078125	-118.3155288696286	630.492919921875	1304.0732421875	-24.29404640197725	695.49169921875	1221.022827148438	-21.24447822570774	574.27587890625	1218.671142578125	-7.175941467284885	631.8283081054688	1114.834350585938	-0.03434522077416461	595.5472412109375	1107.841430664062	-76.52660369873023	771.1849365234375	959.9556884765625	-34.33740234374979	815.2850952148438	908.6332397460938	-87.54489898681621	766.4973754882812	866.7371215820312	-38.29751205444317	855.66943359375	824.8363647460938	-43.5753631591795	650.2240600585938	1473.472045898438	-458.0495605468747	610.2086791992188	1309.793212890625	-555.5501708984372	668.3106689453125	1227.457153320313	-568.9697265624998	543.826904296875	1235.538208007813	-573.3583984374998	598.5422973632812	1129.10107421875	-593.1853027343748	551.7891235351562	1124.425415039063	-530.8583984374998	695.6568603515625	950.3811645507814	-596.3209838867185	733.21337890625	886.9658203125001	-551.1821289062498	678.7273559570312	868.8606567382814	-606.9713134765623	752.8099975585938	807.8743896484376	-604.365539550781	650.3603515625	1068.283813476562	-123.312934875488	522.0880737304688	1043.976684570312	-297.4043273925779	640.4659423828125	1060.576171875	-468.4498901367185	589.0055541992188	932.320068359375	-111.9688873291013	563.2621459960938	655.5452270507812	-143.3686065673827	621.8709716796875	658.4450073242188	-137.6722106933592	603.7647094726562	559.1765747070312	-176.5599060058593	542.25634765625	579.1011352539062	-167.3138427734374	469.9068298339844	354.0276184082032	-179.7031707763671	520.2523803710938	324.4165344238282	-195.3965454101562	500.6885375976562	244.0305480957032	-219.219985961914	439.180419921875	261.2828674316407	-209.6306152343749	362.1443786621094	68.75697326660163	-308.3477172851562	514.6010131835938	18.93385124206548	-214.1187438964844	578.90771484375	30.02445602416999	-311.6103210449219	618.912109375	945.4182128906251	-475.9942321777341	814.0304565429688	696.7911987304689	-457.2040405273436	758.560546875	694.1154785156251	-477.7492675781248	783.012939453125	594.1512451171876	-446.2294921874999	839.3190307617188	622.3858032226564	-433.187530517578	850.6259155273438	347.3964233398439	-436.6762390136718	796.055419921875	322.3950195312501	-445.6984252929687	796.6900024414062	236.0510253906251	-432.4827575683593	858.0454711914062	246.0696563720704	-417.2541809082031	764.862548828125	41.41487503051766	-369.0004577636719	948.286376953125	37.07972717285165	-418.4009094238281	969.8176879882812	53.30480194091804	-320.7020568847656	
